<svg xmlns="http://www.w3.org/2000/svg" viewBox="0 0 32 32">
  <defs>
    <linearGradient id="fav-bg" x1="16" y1="2" x2="16" y2="30" gradientUnits="userSpaceOnUse">
      <stop offset="0" stop-color="#1e4d8c"/>
      <stop offset="1" stop-color="#07111f"/>
    </linearGradient>
    <linearGradient id="fav-gold" x1="16" y1="5" x2="16" y2="13" gradientUnits="userSpaceOnUse">
      <stop offset="0" stop-color="#f0e2c0"/>
      <stop offset="1" stop-color="#7a6235"/>
    </linearGradient>
  </defs>
  <rect x="1.5" y="1.5" width="29" height="29" rx="7.5" fill="url(#fav-bg)"/>
  <path d="M16 5.5 24 12.25H8Z" fill="url(#fav-gold)"/>
  <g fill="#f8fafc">
    <rect x="8.5" y="13.5" width="2.1" height="8.25" rx="0.35"/>
    <rect x="12.95" y="13.5" width="2.1" height="8.25" rx="0.35"/>
    <rect x="17.4" y="13.5" width="2.1" height="8.25" rx="0.35"/>
    <rect x="21.4" y="13.5" width="2.1" height="8.25" rx="0.35"/>
    <rect x="7.75" y="13.5" width="16.5" height="1.4" rx="0.2"/>
    <rect x="7.75" y="21.75" width="16.5" height="1.1" rx="0.2"/>
  </g>
  <g fill="#0f2744">
    <path d="M11.1 15.6h1v4.2h-1zm0 0h2.6c.9 0 1.5-.55 1.5-1.4s-.6-1.4-1.5-1.4h-2.6zm1 1v2.2h1.6c.45 0 .7-.28.7-.68s-.25-.68-.7-.68z"/>
    <path d="M15.2 15.6h1v4.2h-1zm0 0h2.5c.88 0 1.42-.52 1.42-1.35s-.54-1.35-1.42-1.35h-2.5zm1 1v2.1h1.55c.42 0 .68-.25.68-.62s-.26-.62-.68-.62z"/>
    <path d="M19.2 15.6h1.02l1.92 3.2v-3.2h.95v4.2h-.98l-1.95-3.22v3.22h-.96z"/>
  </g>
  <path d="M9 24.25h14" stroke="#c9a962" stroke-width="0.55" stroke-linecap="round" opacity="0.7"/>
</svg>
