<svg xmlns="http://www.w3.org/2000/svg" viewBox="0 0 64 64" role="img" aria-label="Private Property Management Group">
  <defs>
    <linearGradient id="ppm-bg" x1="10" y1="8" x2="54" y2="56" gradientUnits="userSpaceOnUse">
      <stop offset="0" stop-color="#2d5fa3"/>
      <stop offset="1" stop-color="#0f2744"/>
    </linearGradient>
    <linearGradient id="ppm-roof" x1="32" y1="15" x2="32" y2="31" gradientUnits="userSpaceOnUse">
      <stop offset="0" stop-color="#f97316"/>
      <stop offset="1" stop-color="#c2410c"/>
    </linearGradient>
  </defs>
  <rect x="2" y="2" width="60" height="60" rx="14" fill="url(#ppm-bg)"/>
  <path d="M32 14 49 29H41v15H23V29H15Z" fill="url(#ppm-roof)"/>
  <rect x="27.5" y="32" width="9" height="12" rx="1.2" fill="#f8fafc"/>
  <rect x="21" y="34" width="5.5" height="5.5" rx="1" fill="#f8fafc" opacity="0.88"/>
  <rect x="37.5" y="34" width="5.5" height="5.5" rx="1" fill="#f8fafc" opacity="0.88"/>
  <path d="M18 48h28" stroke="#f8fafc" stroke-width="1.5" stroke-linecap="round" opacity="0.35"/>
  <path fill="#f8fafc" d="M20.2 44.8h4.1v3.2h-4.1zm6.4 0h3.5v3.2h-3.5zm6.2 0h3.5v3.2h-3.5zm6.2 0h3.5v3.2h-3.5zm6.2 0h4.1v3.2h-4.1z" opacity="0.9"/>
</svg>
